<mxfile host="app.diagrams.net" modified="2022-10-25T02:41:23.885Z" agent="5.0 (Windows NT 10.0; Win64; x64) AppleWebKit/537.36 (KHTML, like Gecko) Chrome/106.0.0.0 Safari/537.36" etag="-18FQMbMwMShrhflCbFr" version="20.3.6" type="github">
  <diagram id="uQ6q72rI14FIpOOZ1RLg" name="Page-1">
    <mxGraphModel dx="1024" dy="537" grid="1" gridSize="10" guides="1" tooltips="1" connect="1" arrows="1" fold="1" page="1" pageScale="1" pageWidth="1169" pageHeight="827" math="0" shadow="0">
      <root>
        <mxCell id="0" />
        <mxCell id="1" parent="0" />
        <mxCell id="e8Ucd3IMLuHMV7pk7r8x-1" value="3W&lt;br&gt;T1" style="whiteSpace=wrap;html=1;aspect=fixed;" vertex="1" parent="1">
          <mxGeometry x="190" y="210" width="80" height="80" as="geometry" />
        </mxCell>
        <mxCell id="e8Ucd3IMLuHMV7pk7r8x-6" value="3W&lt;br&gt;T2" style="whiteSpace=wrap;html=1;aspect=fixed;" vertex="1" parent="1">
          <mxGeometry x="350" y="210" width="80" height="80" as="geometry" />
        </mxCell>
        <mxCell id="e8Ucd3IMLuHMV7pk7r8x-7" value="8W&lt;br&gt;T4" style="whiteSpace=wrap;html=1;aspect=fixed;" vertex="1" parent="1">
          <mxGeometry x="505" y="210" width="80" height="80" as="geometry" />
        </mxCell>
        <mxCell id="e8Ucd3IMLuHMV7pk7r8x-8" value="4W&lt;br&gt;T5" style="whiteSpace=wrap;html=1;aspect=fixed;" vertex="1" parent="1">
          <mxGeometry x="660" y="210" width="80" height="80" as="geometry" />
        </mxCell>
        <mxCell id="e8Ucd3IMLuHMV7pk7r8x-9" value="6W&lt;br&gt;T3" style="whiteSpace=wrap;html=1;aspect=fixed;" vertex="1" parent="1">
          <mxGeometry x="430" y="320" width="80" height="80" as="geometry" />
        </mxCell>
        <mxCell id="e8Ucd3IMLuHMV7pk7r8x-10" value="3W" style="endArrow=classic;html=1;rounded=0;exitX=1;exitY=0.5;exitDx=0;exitDy=0;strokeColor=#FF3333;" edge="1" parent="1" source="e8Ucd3IMLuHMV7pk7r8x-1" target="e8Ucd3IMLuHMV7pk7r8x-6">
          <mxGeometry width="50" height="50" relative="1" as="geometry">
            <mxPoint x="500" y="330" as="sourcePoint" />
            <mxPoint x="550" y="280" as="targetPoint" />
          </mxGeometry>
        </mxCell>
        <mxCell id="e8Ucd3IMLuHMV7pk7r8x-12" value="6W" style="endArrow=classic;html=1;rounded=0;exitX=1;exitY=0.5;exitDx=0;exitDy=0;entryX=0;entryY=0.5;entryDx=0;entryDy=0;strokeColor=#FF6666;" edge="1" parent="1" source="e8Ucd3IMLuHMV7pk7r8x-6" target="e8Ucd3IMLuHMV7pk7r8x-7">
          <mxGeometry width="50" height="50" relative="1" as="geometry">
            <mxPoint x="500" y="330" as="sourcePoint" />
            <mxPoint x="550" y="280" as="targetPoint" />
          </mxGeometry>
        </mxCell>
        <mxCell id="e8Ucd3IMLuHMV7pk7r8x-13" value="14W" style="endArrow=classic;html=1;rounded=0;exitX=1;exitY=0.5;exitDx=0;exitDy=0;entryX=0;entryY=0.5;entryDx=0;entryDy=0;strokeColor=#FF6666;" edge="1" parent="1" source="e8Ucd3IMLuHMV7pk7r8x-7" target="e8Ucd3IMLuHMV7pk7r8x-8">
          <mxGeometry width="50" height="50" relative="1" as="geometry">
            <mxPoint x="500" y="330" as="sourcePoint" />
            <mxPoint x="550" y="280" as="targetPoint" />
          </mxGeometry>
        </mxCell>
        <mxCell id="e8Ucd3IMLuHMV7pk7r8x-14" value="3W" style="endArrow=classic;html=1;rounded=0;exitX=0.5;exitY=1;exitDx=0;exitDy=0;entryX=0;entryY=0.5;entryDx=0;entryDy=0;" edge="1" parent="1" source="e8Ucd3IMLuHMV7pk7r8x-1" target="e8Ucd3IMLuHMV7pk7r8x-9">
          <mxGeometry width="50" height="50" relative="1" as="geometry">
            <mxPoint x="500" y="330" as="sourcePoint" />
            <mxPoint x="550" y="280" as="targetPoint" />
          </mxGeometry>
        </mxCell>
        <mxCell id="e8Ucd3IMLuHMV7pk7r8x-15" value="9W" style="endArrow=classic;html=1;rounded=0;exitX=1;exitY=0.5;exitDx=0;exitDy=0;entryX=0.5;entryY=1;entryDx=0;entryDy=0;" edge="1" parent="1" source="e8Ucd3IMLuHMV7pk7r8x-9" target="e8Ucd3IMLuHMV7pk7r8x-8">
          <mxGeometry width="50" height="50" relative="1" as="geometry">
            <mxPoint x="530" y="430" as="sourcePoint" />
            <mxPoint x="580" y="380" as="targetPoint" />
          </mxGeometry>
        </mxCell>
        <mxCell id="e8Ucd3IMLuHMV7pk7r8x-16" value="Complete" style="ellipse;whiteSpace=wrap;html=1;" vertex="1" parent="1">
          <mxGeometry x="810" y="210" width="120" height="80" as="geometry" />
        </mxCell>
        <mxCell id="e8Ucd3IMLuHMV7pk7r8x-17" value="18W" style="endArrow=classic;html=1;rounded=0;exitX=1;exitY=0.5;exitDx=0;exitDy=0;entryX=0;entryY=0.5;entryDx=0;entryDy=0;strokeColor=#FF6666;" edge="1" parent="1" source="e8Ucd3IMLuHMV7pk7r8x-8" target="e8Ucd3IMLuHMV7pk7r8x-16">
          <mxGeometry width="50" height="50" relative="1" as="geometry">
            <mxPoint x="500" y="330" as="sourcePoint" />
            <mxPoint x="550" y="280" as="targetPoint" />
          </mxGeometry>
        </mxCell>
        <mxCell id="e8Ucd3IMLuHMV7pk7r8x-18" value="" style="endArrow=classic;html=1;rounded=0;entryX=0.5;entryY=1;entryDx=0;entryDy=0;exitX=1;exitY=0.75;exitDx=0;exitDy=0;" edge="1" parent="1" source="e8Ucd3IMLuHMV7pk7r8x-8" target="e8Ucd3IMLuHMV7pk7r8x-16">
          <mxGeometry width="50" height="50" relative="1" as="geometry">
            <mxPoint x="500" y="330" as="sourcePoint" />
            <mxPoint x="550" y="280" as="targetPoint" />
          </mxGeometry>
        </mxCell>
        <mxCell id="e8Ucd3IMLuHMV7pk7r8x-19" value="13W" style="edgeLabel;html=1;align=center;verticalAlign=middle;resizable=0;points=[];" vertex="1" connectable="0" parent="e8Ucd3IMLuHMV7pk7r8x-18">
          <mxGeometry x="-0.1593" y="-2" relative="1" as="geometry">
            <mxPoint as="offset" />
          </mxGeometry>
        </mxCell>
        <mxCell id="e8Ucd3IMLuHMV7pk7r8x-21" value="3W&lt;br&gt;T1" style="whiteSpace=wrap;html=1;aspect=fixed;" vertex="1" parent="1">
          <mxGeometry x="180" y="450" width="80" height="80" as="geometry" />
        </mxCell>
        <mxCell id="e8Ucd3IMLuHMV7pk7r8x-22" value="3W&lt;br&gt;T2" style="whiteSpace=wrap;html=1;aspect=fixed;" vertex="1" parent="1">
          <mxGeometry x="340" y="450" width="80" height="80" as="geometry" />
        </mxCell>
        <mxCell id="e8Ucd3IMLuHMV7pk7r8x-23" value="8W&lt;br&gt;T4" style="whiteSpace=wrap;html=1;aspect=fixed;" vertex="1" parent="1">
          <mxGeometry x="495" y="450" width="80" height="80" as="geometry" />
        </mxCell>
        <mxCell id="e8Ucd3IMLuHMV7pk7r8x-24" value="4W&lt;br&gt;T5" style="whiteSpace=wrap;html=1;aspect=fixed;" vertex="1" parent="1">
          <mxGeometry x="650" y="450" width="80" height="80" as="geometry" />
        </mxCell>
        <mxCell id="e8Ucd3IMLuHMV7pk7r8x-25" value="10W&lt;br&gt;T3" style="whiteSpace=wrap;html=1;aspect=fixed;" vertex="1" parent="1">
          <mxGeometry x="420" y="560" width="80" height="80" as="geometry" />
        </mxCell>
        <mxCell id="e8Ucd3IMLuHMV7pk7r8x-26" value="3W" style="endArrow=classic;html=1;rounded=0;exitX=1;exitY=0.5;exitDx=0;exitDy=0;strokeColor=#FF3333;" edge="1" parent="1" source="e8Ucd3IMLuHMV7pk7r8x-21" target="e8Ucd3IMLuHMV7pk7r8x-22">
          <mxGeometry width="50" height="50" relative="1" as="geometry">
            <mxPoint x="490" y="570" as="sourcePoint" />
            <mxPoint x="540" y="520" as="targetPoint" />
          </mxGeometry>
        </mxCell>
        <mxCell id="e8Ucd3IMLuHMV7pk7r8x-27" value="6W" style="endArrow=classic;html=1;rounded=0;exitX=1;exitY=0.5;exitDx=0;exitDy=0;entryX=0;entryY=0.5;entryDx=0;entryDy=0;strokeColor=#FF6666;" edge="1" parent="1" source="e8Ucd3IMLuHMV7pk7r8x-22" target="e8Ucd3IMLuHMV7pk7r8x-23">
          <mxGeometry width="50" height="50" relative="1" as="geometry">
            <mxPoint x="490" y="570" as="sourcePoint" />
            <mxPoint x="540" y="520" as="targetPoint" />
          </mxGeometry>
        </mxCell>
        <mxCell id="e8Ucd3IMLuHMV7pk7r8x-28" value="14W" style="endArrow=classic;html=1;rounded=0;exitX=1;exitY=0.5;exitDx=0;exitDy=0;entryX=0;entryY=0.5;entryDx=0;entryDy=0;strokeColor=#FF6666;" edge="1" parent="1" source="e8Ucd3IMLuHMV7pk7r8x-23" target="e8Ucd3IMLuHMV7pk7r8x-24">
          <mxGeometry width="50" height="50" relative="1" as="geometry">
            <mxPoint x="490" y="570" as="sourcePoint" />
            <mxPoint x="540" y="520" as="targetPoint" />
          </mxGeometry>
        </mxCell>
        <mxCell id="e8Ucd3IMLuHMV7pk7r8x-29" value="3W" style="endArrow=classic;html=1;rounded=0;exitX=0.5;exitY=1;exitDx=0;exitDy=0;entryX=0;entryY=0.5;entryDx=0;entryDy=0;" edge="1" parent="1" source="e8Ucd3IMLuHMV7pk7r8x-21" target="e8Ucd3IMLuHMV7pk7r8x-25">
          <mxGeometry width="50" height="50" relative="1" as="geometry">
            <mxPoint x="490" y="570" as="sourcePoint" />
            <mxPoint x="540" y="520" as="targetPoint" />
          </mxGeometry>
        </mxCell>
        <mxCell id="e8Ucd3IMLuHMV7pk7r8x-30" value="13W" style="endArrow=classic;html=1;rounded=0;exitX=1;exitY=0.5;exitDx=0;exitDy=0;entryX=0.5;entryY=1;entryDx=0;entryDy=0;" edge="1" parent="1" source="e8Ucd3IMLuHMV7pk7r8x-25" target="e8Ucd3IMLuHMV7pk7r8x-24">
          <mxGeometry width="50" height="50" relative="1" as="geometry">
            <mxPoint x="520" y="670" as="sourcePoint" />
            <mxPoint x="570" y="620" as="targetPoint" />
          </mxGeometry>
        </mxCell>
        <mxCell id="e8Ucd3IMLuHMV7pk7r8x-31" value="Complete" style="ellipse;whiteSpace=wrap;html=1;" vertex="1" parent="1">
          <mxGeometry x="800" y="450" width="120" height="80" as="geometry" />
        </mxCell>
        <mxCell id="e8Ucd3IMLuHMV7pk7r8x-32" value="18W" style="endArrow=classic;html=1;rounded=0;exitX=1;exitY=0.5;exitDx=0;exitDy=0;entryX=0;entryY=0.5;entryDx=0;entryDy=0;strokeColor=#FF6666;" edge="1" parent="1" source="e8Ucd3IMLuHMV7pk7r8x-24" target="e8Ucd3IMLuHMV7pk7r8x-31">
          <mxGeometry width="50" height="50" relative="1" as="geometry">
            <mxPoint x="490" y="570" as="sourcePoint" />
            <mxPoint x="540" y="520" as="targetPoint" />
          </mxGeometry>
        </mxCell>
        <mxCell id="e8Ucd3IMLuHMV7pk7r8x-33" value="" style="endArrow=classic;html=1;rounded=0;entryX=0.5;entryY=1;entryDx=0;entryDy=0;exitX=1;exitY=0.75;exitDx=0;exitDy=0;" edge="1" parent="1" source="e8Ucd3IMLuHMV7pk7r8x-24" target="e8Ucd3IMLuHMV7pk7r8x-31">
          <mxGeometry width="50" height="50" relative="1" as="geometry">
            <mxPoint x="490" y="570" as="sourcePoint" />
            <mxPoint x="540" y="520" as="targetPoint" />
          </mxGeometry>
        </mxCell>
        <mxCell id="e8Ucd3IMLuHMV7pk7r8x-34" value="17W" style="edgeLabel;html=1;align=center;verticalAlign=middle;resizable=0;points=[];" vertex="1" connectable="0" parent="e8Ucd3IMLuHMV7pk7r8x-33">
          <mxGeometry x="-0.1593" y="-2" relative="1" as="geometry">
            <mxPoint as="offset" />
          </mxGeometry>
        </mxCell>
        <mxCell id="e8Ucd3IMLuHMV7pk7r8x-35" value="3W&lt;br&gt;T1" style="whiteSpace=wrap;html=1;aspect=fixed;" vertex="1" parent="1">
          <mxGeometry x="160" y="710" width="80" height="80" as="geometry" />
        </mxCell>
        <mxCell id="e8Ucd3IMLuHMV7pk7r8x-36" value="3W&lt;br&gt;T2" style="whiteSpace=wrap;html=1;aspect=fixed;" vertex="1" parent="1">
          <mxGeometry x="320" y="710" width="80" height="80" as="geometry" />
        </mxCell>
        <mxCell id="e8Ucd3IMLuHMV7pk7r8x-37" value="8W&lt;br&gt;T4" style="whiteSpace=wrap;html=1;aspect=fixed;" vertex="1" parent="1">
          <mxGeometry x="475" y="710" width="80" height="80" as="geometry" />
        </mxCell>
        <mxCell id="e8Ucd3IMLuHMV7pk7r8x-38" value="4W&lt;br&gt;T5" style="whiteSpace=wrap;html=1;aspect=fixed;" vertex="1" parent="1">
          <mxGeometry x="630" y="710" width="80" height="80" as="geometry" />
        </mxCell>
        <mxCell id="e8Ucd3IMLuHMV7pk7r8x-39" value="6W&lt;br&gt;T3" style="whiteSpace=wrap;html=1;aspect=fixed;" vertex="1" parent="1">
          <mxGeometry x="400" y="820" width="80" height="80" as="geometry" />
        </mxCell>
        <mxCell id="e8Ucd3IMLuHMV7pk7r8x-40" value="3W" style="endArrow=classic;html=1;rounded=0;exitX=1;exitY=0.5;exitDx=0;exitDy=0;strokeColor=#000000;" edge="1" parent="1" source="e8Ucd3IMLuHMV7pk7r8x-35" target="e8Ucd3IMLuHMV7pk7r8x-36">
          <mxGeometry width="50" height="50" relative="1" as="geometry">
            <mxPoint x="470" y="830" as="sourcePoint" />
            <mxPoint x="520" y="780" as="targetPoint" />
          </mxGeometry>
        </mxCell>
        <mxCell id="e8Ucd3IMLuHMV7pk7r8x-41" value="6W" style="endArrow=classic;html=1;rounded=0;exitX=1;exitY=0.5;exitDx=0;exitDy=0;entryX=0;entryY=0.5;entryDx=0;entryDy=0;strokeColor=#000000;" edge="1" parent="1" source="e8Ucd3IMLuHMV7pk7r8x-36" target="e8Ucd3IMLuHMV7pk7r8x-37">
          <mxGeometry width="50" height="50" relative="1" as="geometry">
            <mxPoint x="470" y="830" as="sourcePoint" />
            <mxPoint x="520" y="780" as="targetPoint" />
          </mxGeometry>
        </mxCell>
        <mxCell id="e8Ucd3IMLuHMV7pk7r8x-42" value="14W" style="endArrow=classic;html=1;rounded=0;exitX=1;exitY=0.5;exitDx=0;exitDy=0;entryX=0;entryY=0.5;entryDx=0;entryDy=0;strokeColor=#000000;" edge="1" parent="1" source="e8Ucd3IMLuHMV7pk7r8x-37" target="e8Ucd3IMLuHMV7pk7r8x-38">
          <mxGeometry width="50" height="50" relative="1" as="geometry">
            <mxPoint x="470" y="830" as="sourcePoint" />
            <mxPoint x="520" y="780" as="targetPoint" />
          </mxGeometry>
        </mxCell>
        <mxCell id="e8Ucd3IMLuHMV7pk7r8x-43" value="3W" style="endArrow=classic;html=1;rounded=0;exitX=0.5;exitY=1;exitDx=0;exitDy=0;entryX=0;entryY=0.5;entryDx=0;entryDy=0;strokeColor=#FF6666;" edge="1" parent="1" source="e8Ucd3IMLuHMV7pk7r8x-35" target="e8Ucd3IMLuHMV7pk7r8x-39">
          <mxGeometry width="50" height="50" relative="1" as="geometry">
            <mxPoint x="470" y="830" as="sourcePoint" />
            <mxPoint x="520" y="780" as="targetPoint" />
          </mxGeometry>
        </mxCell>
        <mxCell id="e8Ucd3IMLuHMV7pk7r8x-45" value="Complete" style="ellipse;whiteSpace=wrap;html=1;" vertex="1" parent="1">
          <mxGeometry x="780" y="710" width="120" height="80" as="geometry" />
        </mxCell>
        <mxCell id="e8Ucd3IMLuHMV7pk7r8x-46" value="18W" style="endArrow=classic;html=1;rounded=0;exitX=1;exitY=0.5;exitDx=0;exitDy=0;entryX=0;entryY=0.5;entryDx=0;entryDy=0;strokeColor=#000000;" edge="1" parent="1" source="e8Ucd3IMLuHMV7pk7r8x-38" target="e8Ucd3IMLuHMV7pk7r8x-45">
          <mxGeometry width="50" height="50" relative="1" as="geometry">
            <mxPoint x="470" y="830" as="sourcePoint" />
            <mxPoint x="520" y="780" as="targetPoint" />
          </mxGeometry>
        </mxCell>
        <mxCell id="e8Ucd3IMLuHMV7pk7r8x-49" value="11W&lt;br&gt;T6" style="whiteSpace=wrap;html=1;aspect=fixed;fillColor=#f8cecc;strokeColor=#b85450;" vertex="1" parent="1">
          <mxGeometry x="545" y="820" width="80" height="80" as="geometry" />
        </mxCell>
        <mxCell id="e8Ucd3IMLuHMV7pk7r8x-50" value="9W" style="endArrow=classic;html=1;rounded=0;strokeColor=#FF6666;exitX=1;exitY=0.5;exitDx=0;exitDy=0;" edge="1" parent="1" source="e8Ucd3IMLuHMV7pk7r8x-39">
          <mxGeometry width="50" height="50" relative="1" as="geometry">
            <mxPoint x="500" y="740" as="sourcePoint" />
            <mxPoint x="540" y="860" as="targetPoint" />
          </mxGeometry>
        </mxCell>
        <mxCell id="e8Ucd3IMLuHMV7pk7r8x-51" value="20W" style="endArrow=classic;html=1;rounded=0;strokeColor=#FF6666;entryX=0.5;entryY=1;entryDx=0;entryDy=0;exitX=1;exitY=0.5;exitDx=0;exitDy=0;" edge="1" parent="1" source="e8Ucd3IMLuHMV7pk7r8x-49" target="e8Ucd3IMLuHMV7pk7r8x-38">
          <mxGeometry width="50" height="50" relative="1" as="geometry">
            <mxPoint x="620" y="890" as="sourcePoint" />
            <mxPoint x="670" y="840" as="targetPoint" />
          </mxGeometry>
        </mxCell>
        <mxCell id="e8Ucd3IMLuHMV7pk7r8x-52" value="24W" style="endArrow=classic;html=1;rounded=0;strokeColor=#FF6666;exitX=1;exitY=0.75;exitDx=0;exitDy=0;entryX=0;entryY=1;entryDx=0;entryDy=0;" edge="1" parent="1" source="e8Ucd3IMLuHMV7pk7r8x-38" target="e8Ucd3IMLuHMV7pk7r8x-45">
          <mxGeometry width="50" height="50" relative="1" as="geometry">
            <mxPoint x="60" y="910" as="sourcePoint" />
            <mxPoint x="110" y="860" as="targetPoint" />
          </mxGeometry>
        </mxCell>
      </root>
    </mxGraphModel>
  </diagram>
</mxfile>
